<svg width="35" height="35" viewBox="0 0 35 35" fill="none" xmlns="http://www.w3.org/2000/svg">
<path d="M18.9991 2.9183C20.0633 2.91421 21.1275 2.92491 22.1914 2.95038L22.4743 2.96059C22.801 2.97226 23.1233 2.98684 23.5127 3.00434C25.0643 3.07726 26.1231 3.32226 27.052 3.68247C28.0145 4.05288 28.8254 4.55455 29.6362 5.36538C30.3776 6.09397 30.9514 6.9753 31.3177 7.94809C31.6779 8.87705 31.9229 9.93726 31.9958 11.4889C32.0133 11.8768 32.0279 12.2006 32.0395 12.5273L32.0483 12.8102C32.0742 13.8736 32.0854 14.9373 32.0818 16.001L32.0833 17.0889V18.9993C32.0869 20.0635 32.0757 21.1277 32.0497 22.1916L32.041 22.4746C32.0293 22.8012 32.0147 23.1235 31.9972 23.5129C31.9243 25.0645 31.6764 26.1233 31.3177 27.0523C30.9526 28.0261 30.3786 28.9081 29.6362 29.6364C28.907 30.3777 28.0252 30.9515 27.052 31.3179C26.1231 31.6781 25.0643 31.9231 23.5127 31.996C23.1233 32.0135 22.801 32.0281 22.4743 32.0398L22.1914 32.0485C21.1275 32.0744 20.0633 32.0856 18.9991 32.0821L17.9112 32.0835H16.0022C14.938 32.0871 13.8738 32.0759 12.8099 32.05L12.527 32.0412C12.1808 32.0287 11.8347 32.0141 11.4887 31.9975C9.93703 31.9245 8.87828 31.6766 7.94786 31.3179C6.97469 30.9523 6.09321 30.3785 5.36515 29.6364C4.62293 28.9077 4.04861 28.0258 3.68224 27.0523C3.32203 26.1233 3.07703 25.0645 3.00411 23.5129C2.98787 23.1668 2.97329 22.8207 2.96036 22.4746L2.95307 22.1916C2.92618 21.1278 2.91403 20.0636 2.91661 18.9993V16.001C2.91254 14.9373 2.92324 13.8736 2.9487 12.8102L2.9589 12.5273C2.97057 12.2006 2.98515 11.8768 3.00265 11.4889C3.07557 9.9358 3.32057 8.87851 3.68078 7.94809C4.04736 6.97483 4.62281 6.09374 5.36661 5.36684C6.09417 4.62419 6.9751 4.04934 7.94786 3.68247C8.87828 3.32226 9.93557 3.07726 11.4887 3.00434L12.527 2.96059L12.8099 2.9533C13.8733 2.92643 14.9371 2.91427 16.0008 2.91684L18.9991 2.9183ZM17.4999 10.21C16.5338 10.1963 15.5746 10.3748 14.678 10.7351C13.7815 11.0953 12.9655 11.6302 12.2774 12.3086C11.5894 12.987 11.043 13.7953 10.6701 14.6867C10.2972 15.5781 10.1052 16.5347 10.1052 17.5009C10.1052 18.4671 10.2972 19.4237 10.6701 20.3151C11.043 21.2065 11.5894 22.0148 12.2774 22.6932C12.9655 23.3716 13.7815 23.9065 14.678 24.2667C15.5746 24.627 16.5338 24.8055 17.4999 24.7918C19.4338 24.7918 21.2885 24.0236 22.6559 22.6562C24.0234 21.2887 24.7916 19.434 24.7916 17.5002C24.7916 15.5663 24.0234 13.7116 22.6559 12.3442C21.2885 10.9767 19.4338 10.21 17.4999 10.21ZM17.4999 13.1266C18.0811 13.1159 18.6586 13.2211 19.1986 13.4361C19.7386 13.6511 20.2304 13.9715 20.6452 14.3787C21.0601 14.7858 21.3896 15.2716 21.6146 15.8075C21.8395 16.3435 21.9554 16.9189 21.9555 17.5002C21.9556 18.0814 21.8399 18.6569 21.6151 19.1929C21.3903 19.7289 21.061 20.2148 20.6463 20.6221C20.2316 21.0294 19.7399 21.35 19.2 21.5651C18.66 21.7803 18.0826 21.8857 17.5014 21.8752C16.3411 21.8752 15.2283 21.4142 14.4078 20.5938C13.5873 19.7733 13.1264 18.6605 13.1264 17.5002C13.1264 16.3399 13.5873 15.2271 14.4078 14.4066C15.2283 13.5861 16.3411 13.1252 17.5014 13.1252L17.4999 13.1266ZM25.1562 8.02247C24.6857 8.0413 24.2408 8.24143 23.9146 8.58097C23.5884 8.9205 23.4062 9.37308 23.4062 9.84392C23.4062 10.3148 23.5884 10.7674 23.9146 11.1069C24.2408 11.4464 24.6857 11.6466 25.1562 11.6654C25.6397 11.6654 26.1033 11.4733 26.4452 11.1315C26.7871 10.7896 26.9791 10.3259 26.9791 9.84246C26.9791 9.359 26.7871 8.89533 26.4452 8.55347C26.1033 8.21161 25.6397 8.01955 25.1562 8.01955V8.02247Z" fill="#00FFE0"/>
</svg>
