<svg width="36" height="36" viewBox="0 0 36 36" fill="none" xmlns="http://www.w3.org/2000/svg">
<path fill-rule="evenodd" clip-rule="evenodd" d="M7.5 30C6.30653 30 5.16193 29.5259 4.31802 28.682C3.47411 27.8381 3 26.6935 3 25.5V10.5C3 9.30653 3.47411 8.16193 4.31802 7.31802C5.16193 6.47411 6.30653 6 7.5 6H28.5C29.6935 6 30.8381 6.47411 31.682 7.31802C32.5259 8.16193 33 9.30653 33 10.5V25.5C33 26.6935 32.5259 27.8381 31.682 28.682C30.8381 29.5259 29.6935 30 28.5 30H7.5ZM11.4375 12.33C11.2847 12.1995 11.1072 12.1011 10.9157 12.0405C10.7241 11.9799 10.5223 11.9585 10.3223 11.9774C10.1222 11.9963 9.92804 12.0552 9.75121 12.1506C9.57438 12.246 9.41852 12.376 9.29288 12.5328C9.16724 12.6896 9.07438 12.87 9.01982 13.0634C8.96525 13.2567 8.9501 13.4591 8.97524 13.6585C9.00039 13.8578 9.06533 14.0501 9.16621 14.2238C9.26709 14.3976 9.40186 14.5493 9.5625 14.67L15.1875 19.1715C15.9856 19.8105 16.9776 20.1587 18 20.1587C19.0224 20.1587 20.0144 19.8105 20.8125 19.1715L26.4375 14.6715C26.5913 14.5484 26.7194 14.3962 26.8145 14.2236C26.9095 14.0509 26.9696 13.8613 26.9913 13.6655C27.013 13.4696 26.996 13.2714 26.9411 13.0822C26.8862 12.8929 26.7946 12.7163 26.6715 12.5625C26.5484 12.4087 26.3962 12.2806 26.2236 12.1855C26.0509 12.0905 25.8613 12.0304 25.6655 12.0087C25.4696 11.987 25.2714 12.004 25.0822 12.0589C24.8929 12.1138 24.7163 12.2054 24.5625 12.3285L18.9375 16.8285C18.6715 17.0415 18.3408 17.1576 18 17.1576C17.6592 17.1576 17.3285 17.0415 17.0625 16.8285L11.4375 12.3285V12.33Z" fill="#00FFE0"/>
</svg>
