<svg width="55" height="54" viewBox="0 0 55 54" fill="none" xmlns="http://www.w3.org/2000/svg">
<path d="M27.5 0C12.32 0 0 12.096 0 27C0 41.904 12.32 54 27.5 54C42.68 54 55 41.904 55 27C55 12.096 42.68 0 27.5 0ZM40.26 18.36C39.8475 22.626 38.06 32.994 37.1525 37.773C36.7675 39.798 35.9975 40.473 35.2825 40.554C33.6875 40.689 32.4775 39.528 30.9375 38.529C28.5175 36.963 27.1425 35.991 24.805 34.479C22.0825 32.724 23.8425 31.752 25.41 30.186C25.8225 29.781 32.8625 23.49 33 22.923C33.0191 22.8371 33.0166 22.748 32.9926 22.6633C32.9686 22.5786 32.924 22.5009 32.8625 22.437C32.6975 22.302 32.4775 22.356 32.285 22.383C32.0375 22.437 28.1875 24.948 20.68 29.916C19.58 30.645 18.59 31.023 17.71 30.996C16.72 30.969 14.85 30.456 13.4475 29.997C11.715 29.457 10.3675 29.16 10.4775 28.215C10.5325 27.729 11.22 27.243 12.5125 26.73C20.5425 23.301 25.8775 21.033 28.545 19.953C36.19 16.821 37.7575 16.281 38.8025 16.281C39.0225 16.281 39.545 16.335 39.875 16.605C40.15 16.821 40.2325 17.118 40.26 17.334C40.2325 17.496 40.2875 17.982 40.26 18.36Z" fill="#0019FF"/>
</svg>
